<svg width="58" height="43" viewBox="0 0 58 43" fill="none" xmlns="http://www.w3.org/2000/svg">
<path d="M7.25 5.375C6.25312 5.375 5.4375 6.18125 5.4375 7.16667V9.64141L24.9785 25.4977C27.3234 27.4013 30.6879 27.4013 33.0328 25.4977L52.5625 9.64141V7.16667C52.5625 6.18125 51.7469 5.375 50.75 5.375H7.25ZM5.4375 16.5953V35.8333C5.4375 36.8187 6.25312 37.625 7.25 37.625H50.75C51.7469 37.625 52.5625 36.8187 52.5625 35.8333V16.5953L36.4766 29.6521C32.1266 33.1794 25.8621 33.1794 21.5234 29.6521L5.4375 16.5953ZM0 7.16667C0 3.2138 3.25117 0 7.25 0H50.75C54.7488 0 58 3.2138 58 7.16667V35.8333C58 39.7862 54.7488 43 50.75 43H7.25C3.25117 43 0 39.7862 0 35.8333V7.16667Z" fill="white"/>
</svg>
