<svg width="108" height="105" viewBox="0 0 108 105" fill="none" xmlns="http://www.w3.org/2000/svg">
<path d="M36.1234 84.5458C36.1234 84.9801 35.6226 85.3275 34.9911 85.3275C34.2726 85.3926 33.7718 85.0452 33.7718 84.5458C33.7718 84.1116 34.2726 83.7642 34.904 83.7642C35.5573 83.6991 36.1234 84.0465 36.1234 84.5458ZM29.3516 83.5688C29.1992 84.003 29.6347 84.5024 30.2879 84.6327C30.854 84.8498 31.5073 84.6327 31.6379 84.1985C31.7685 83.7642 31.3548 83.2648 30.7016 83.0694C30.1355 82.9175 29.504 83.1346 29.3516 83.5688ZM38.9758 83.1997C38.3444 83.3517 37.9089 83.7642 37.9742 84.2636C38.0395 84.6978 38.6056 84.9801 39.2589 84.8281C39.8903 84.6761 40.3258 84.2636 40.2605 83.8294C40.1952 83.4168 39.6073 83.1346 38.9758 83.1997ZM53.3032 0C23.1024 0 0 22.8626 0 52.9769C0 77.0553 15.1984 97.6598 36.9073 104.912C39.6944 105.411 40.6742 103.696 40.6742 102.284C40.6742 100.938 40.6089 93.5128 40.6089 88.9533C40.6089 88.9533 25.3669 92.2101 22.1661 82.4832C22.1661 82.4832 19.6839 76.1651 16.1129 74.5367C16.1129 74.5367 11.1266 71.1279 16.4613 71.1931C16.4613 71.1931 21.8831 71.6273 24.8661 76.7947C29.6347 85.1755 37.6258 82.7655 40.7395 81.3325C41.2403 77.8586 42.6556 75.4486 44.2234 74.0156C32.0516 72.6695 19.771 70.9108 19.771 50.024C19.771 44.0533 21.4258 41.0571 24.9097 37.2358C24.3435 35.8245 22.4927 30.0057 25.4758 22.4935C30.0266 21.0822 40.5 28.3556 40.5 28.3556C44.8548 27.1398 49.5363 26.5101 54.1742 26.5101C58.8121 26.5101 63.4935 27.1398 67.8484 28.3556C67.8484 28.3556 78.3218 21.0605 82.8726 22.4935C85.8556 30.0275 84.0048 35.8245 83.4387 37.2358C86.9226 41.0788 89.0565 44.075 89.0565 50.024C89.0565 70.976 76.2315 72.6478 64.0597 74.0156C66.0629 75.7308 67.7613 78.9876 67.7613 84.0899C67.7613 91.4068 67.696 100.461 67.696 102.241C67.696 103.652 68.6976 105.367 71.4629 104.868C93.2371 97.6598 108 77.0553 108 52.9769C108 22.8626 83.504 0 53.3032 0ZM21.1645 74.8841C20.8815 75.1012 20.9468 75.6006 21.3169 76.0131C21.6653 76.3605 22.1661 76.5125 22.4492 76.2302C22.7323 76.0131 22.6669 75.5137 22.2968 75.1012C21.9484 74.7538 21.4476 74.6018 21.1645 74.8841ZM18.8129 73.1254C18.6605 73.4077 18.8782 73.7551 19.3137 73.9722C19.6621 74.1893 20.0976 74.1242 20.25 73.8202C20.4024 73.538 20.1847 73.1906 19.7492 72.9734C19.3137 72.8432 18.9653 72.9083 18.8129 73.1254ZM25.8677 80.8548C25.5194 81.1371 25.65 81.7884 26.1508 82.201C26.6516 82.7003 27.2831 82.7655 27.5661 82.4181C27.8492 82.1358 27.7185 81.4845 27.2831 81.072C26.804 80.5726 26.1508 80.5074 25.8677 80.8548ZM23.3855 77.6632C23.0371 77.8803 23.0371 78.4448 23.3855 78.9442C23.7339 79.4436 24.3218 79.6607 24.6048 79.4436C24.9532 79.1613 24.9532 78.5968 24.6048 78.0974C24.3 77.5981 23.7339 77.3809 23.3855 77.6632Z" fill="#D9D9D9"/>
</svg>
