<svg width="98" height="97" viewBox="0 0 98 97" fill="none" xmlns="http://www.w3.org/2000/svg">
<path d="M96.1514 44.1805L53.375 1.82888C52.1908 0.657813 50.5853 0 48.9114 0C47.2375 0 45.632 0.657813 44.4478 1.82888L35.5535 10.6262L46.8234 21.7813C52.7428 19.8023 58.3472 25.4124 56.315 31.239L67.1781 41.9915C74.6658 39.4365 80.5611 48.7036 74.9371 54.2661C69.1424 60.0017 59.5787 53.6446 62.6871 46.1811L52.5481 36.1584V62.5415C58.0825 65.2567 57.4175 71.6029 54.5344 74.4502C53.1257 75.8437 51.2157 76.6264 49.2242 76.6264C47.2327 76.6264 45.3227 75.8437 43.9141 74.4502C40.0707 70.6394 41.4925 64.2932 46.375 62.325V35.6928C41.825 33.8503 40.9938 29.037 42.2975 25.9494L31.1873 14.9393L1.84861 43.9835C0.66495 45.1553 0 46.7445 0 48.4016C0 50.0586 0.66495 51.6479 1.84861 52.8197L44.6381 95.1713C45.8219 96.3422 47.427 97 49.1006 97C50.7742 97 52.3793 96.3422 53.5631 95.1713L96.1514 53.0167C97.335 51.8449 98 50.2557 98 48.5986C98 46.9415 97.335 45.3523 96.1514 44.1805Z" fill="#F05134"/>
</svg>
