<svg width="54" height="52" viewBox="0 0 54 52" fill="none" xmlns="http://www.w3.org/2000/svg">
<path d="M18.0617 41.8703C18.0617 42.0854 17.8113 42.2574 17.4956 42.2574C17.1363 42.2897 16.8859 42.1176 16.8859 41.8703C16.8859 41.6553 17.1363 41.4832 17.452 41.4832C17.7786 41.451 18.0617 41.623 18.0617 41.8703ZM14.6758 41.3865C14.5996 41.6015 14.8173 41.8488 15.144 41.9133C15.427 42.0209 15.7536 41.9133 15.819 41.6983C15.8843 41.4832 15.6774 41.2359 15.3508 41.1392C15.0677 41.0639 14.752 41.1714 14.6758 41.3865ZM19.4879 41.2037C19.1722 41.2789 18.9544 41.4832 18.9871 41.7305C19.0198 41.9456 19.3028 42.0854 19.6294 42.0101C19.9452 41.9348 20.1629 41.7305 20.1302 41.5155C20.0976 41.3112 19.8036 41.1714 19.4879 41.2037ZM26.6516 0C11.5512 0 0 11.3224 0 26.2362C0 38.1607 7.59919 48.3648 18.4536 51.9562C19.8472 52.2035 20.3371 51.354 20.3371 50.6551C20.3371 49.9885 20.3044 46.3111 20.3044 44.0531C20.3044 44.0531 12.6835 45.666 11.0831 40.8488C11.0831 40.8488 9.84194 37.7198 8.05645 36.9134C8.05645 36.9134 5.56331 35.2253 8.23065 35.2575C8.23065 35.2575 10.9415 35.4726 12.4331 38.0317C14.8173 42.1821 18.8129 40.9886 20.3698 40.2789C20.6202 38.5585 21.3278 37.365 22.1117 36.6553C16.0258 35.9887 9.88548 35.1177 9.88548 24.7738C9.88548 21.8169 10.7129 20.333 12.4548 18.4406C12.1718 17.7417 11.2464 14.86 12.7379 11.1396C15.0133 10.4407 20.25 14.0428 20.25 14.0428C22.4274 13.4407 24.7681 13.1288 27.0871 13.1288C29.406 13.1288 31.7468 13.4407 33.9242 14.0428C33.9242 14.0428 39.1609 10.4299 41.4363 11.1396C42.9278 14.8707 42.0024 17.7417 41.7194 18.4406C43.4613 20.3438 44.5282 21.8276 44.5282 24.7738C44.5282 35.15 38.1157 35.9779 32.0298 36.6553C33.0315 37.5048 33.8806 39.1177 33.8806 41.6445C33.8806 45.2681 33.848 49.7519 33.848 50.6336C33.848 51.3325 34.3488 52.182 35.7315 51.9347C46.6185 48.3648 54 38.1607 54 26.2362C54 11.3224 41.752 0 26.6516 0ZM10.5823 37.0854C10.4407 37.193 10.4734 37.4403 10.6585 37.6446C10.8327 37.8166 11.0831 37.8919 11.2246 37.7521C11.3661 37.6446 11.3335 37.3973 11.1484 37.193C10.9742 37.0209 10.7238 36.9457 10.5823 37.0854ZM9.40645 36.2145C9.33024 36.3543 9.43911 36.5263 9.65685 36.6338C9.83105 36.7414 10.0488 36.7091 10.125 36.5586C10.2012 36.4188 10.0923 36.2468 9.8746 36.1392C9.65685 36.0747 9.48266 36.107 9.40645 36.2145ZM12.9339 40.0424C12.7597 40.1822 12.825 40.5048 13.0754 40.709C13.3258 40.9564 13.6415 40.9886 13.7831 40.8166C13.9246 40.6768 13.8593 40.3542 13.6415 40.1499C13.402 39.9026 13.0754 39.8704 12.9339 40.0424ZM11.6927 38.4618C11.5185 38.5693 11.5185 38.8489 11.6927 39.0962C11.8669 39.3435 12.1609 39.451 12.3024 39.3435C12.4766 39.2037 12.4766 38.9241 12.3024 38.6768C12.15 38.4295 11.8669 38.322 11.6927 38.4618Z" fill="white"/>
</svg>
