<svg width="52" height="51" viewBox="0 0 52 51" fill="none" xmlns="http://www.w3.org/2000/svg">
<path d="M26.0058 12.4242C18.6278 12.4242 12.6766 18.2622 12.6766 25.5C12.6766 32.7378 18.6278 38.5758 26.0058 38.5758C33.3838 38.5758 39.335 32.7378 39.335 25.5C39.335 18.2622 33.3838 12.4242 26.0058 12.4242ZM26.0058 34.0009C21.2379 34.0009 17.3401 30.1886 17.3401 25.5C17.3401 20.8114 21.2263 16.9991 26.0058 16.9991C30.7853 16.9991 34.6715 20.8114 34.6715 25.5C34.6715 30.1886 30.7737 34.0009 26.0058 34.0009ZM42.9892 11.8894C42.9892 13.585 41.5971 14.9393 39.8802 14.9393C38.1517 14.9393 36.7712 13.5736 36.7712 11.8894C36.7712 10.2051 38.1633 8.83951 39.8802 8.83951C41.5971 8.83951 42.9892 10.2051 42.9892 11.8894ZM51.8173 14.9848C51.6201 10.8993 50.6688 7.28043 47.6178 4.29884C44.5785 1.31725 40.8895 0.384079 36.7248 0.179237C32.4326 -0.0597456 19.5674 -0.0597456 15.2752 0.179237C11.1221 0.372699 7.43313 1.30587 4.38215 4.28746C1.33118 7.26905 0.391523 10.8879 0.182711 14.9734C-0.0609035 19.184 -0.0609035 31.8046 0.182711 36.0152C0.379922 40.1007 1.33118 43.7196 4.38215 46.7012C7.43313 49.6828 11.1105 50.6159 15.2752 50.8208C19.5674 51.0597 32.4326 51.0597 36.7248 50.8208C40.8895 50.6273 44.5785 49.6941 47.6178 46.7012C50.6572 43.7196 51.6085 40.1007 51.8173 36.0152C52.0609 31.8046 52.0609 19.1954 51.8173 14.9848ZM46.2722 40.5331C45.3673 42.7636 43.6156 44.482 41.3303 45.3811C37.9081 46.7125 29.7876 46.4053 26.0058 46.4053C22.224 46.4053 14.0919 46.7012 10.6813 45.3811C8.40758 44.4934 6.65588 42.775 5.73943 40.5331C4.38215 37.176 4.69537 29.2099 4.69537 25.5C4.69537 21.7901 4.39375 13.8126 5.73943 10.4669C6.64428 8.23636 8.39598 6.51796 10.6813 5.61893C14.1035 4.28746 22.224 4.59472 26.0058 4.59472C29.7876 4.59472 37.9197 4.29884 41.3303 5.61893C43.604 6.50658 45.3557 8.22498 46.2722 10.4669C47.6294 13.824 47.3162 21.7901 47.3162 25.5C47.3162 29.2099 47.6294 37.1874 46.2722 40.5331Z" fill="white"/>
</svg>
