<svg width="97" height="97" viewBox="0 0 97 97" fill="none" xmlns="http://www.w3.org/2000/svg">
<path d="M0 0V97H97V0H0ZM52.7871 75.6513C52.7871 85.0915 47.2442 89.4002 39.1681 89.4002C31.8714 89.4002 27.6493 85.6328 25.4842 81.0643L32.9107 76.5824C34.3397 79.1156 35.6388 81.2591 38.7783 81.2591C41.7663 81.2591 43.6716 80.09 43.6716 75.5214V44.5377H52.7871V75.6513ZM74.3522 89.4002C65.8864 89.4002 60.4085 85.373 57.7453 80.09L65.1719 75.8029C67.1205 78.9857 69.6754 81.3458 74.1574 81.3458C77.9248 81.3458 80.3498 79.462 80.3498 76.8422C80.3498 73.7243 77.8815 72.6201 73.7027 70.7797L71.4292 69.8054C64.8471 67.0123 60.4951 63.483 60.4951 56.0565C60.4951 49.2145 65.7132 44.0181 73.8326 44.0181C79.6353 44.0181 83.7924 46.0317 86.7804 51.3147L79.6786 55.8616C78.1196 53.0685 76.4308 51.9643 73.8109 51.9643C71.1478 51.9643 69.4589 53.6531 69.4589 55.8616C69.4589 58.5897 71.1478 59.694 75.0667 61.4045L77.3402 62.3788C85.0915 65.6915 89.4435 69.0908 89.4435 76.7123C89.4435 84.8966 82.9913 89.4002 74.3522 89.4002Z" fill="#FDE635"/>
</svg>
