<svg width="50" height="51" viewBox="0 0 50 51" fill="none" xmlns="http://www.w3.org/2000/svg">
<path d="M46.4286 0H3.56027C1.59598 0 0 1.65067 0 3.67701V47.323C0 49.3493 1.59598 51 3.56027 51H46.4286C48.3929 51 50 49.3493 50 47.323V3.67701C50 1.65067 48.3929 0 46.4286 0ZM15.1116 43.7143H7.70089V19.3754H15.1228V43.7143H15.1116ZM11.4062 16.0513C9.02902 16.0513 7.10938 14.0819 7.10938 11.6685C7.10938 9.25513 9.02902 7.28571 11.4062 7.28571C13.7723 7.28571 15.7031 9.25513 15.7031 11.6685C15.7031 14.0933 13.7835 16.0513 11.4062 16.0513ZM42.8906 43.7143H35.4799V31.875C35.4799 29.0518 35.4241 25.4203 31.6295 25.4203C27.7679 25.4203 27.1763 28.494 27.1763 31.6701V43.7143H19.7656V19.3754H26.875V22.6996H26.9754C27.9687 20.7871 30.3906 18.7721 33.9955 18.7721C41.4955 18.7721 42.8906 23.8152 42.8906 30.3723V43.7143Z" fill="white"/>
</svg>
