<svg width="139" height="85" viewBox="0 0 139 85" fill="none" xmlns="http://www.w3.org/2000/svg">
<path d="M68.6964 85C68.2403 85 67.7842 84.8699 67.3716 84.653L63.2016 82.181C62.5717 81.8341 62.8758 81.704 63.093 81.6389C63.9183 81.357 64.092 81.292 64.9825 80.7715C65.0694 80.7282 65.1997 80.7498 65.2866 80.7932L68.5009 82.7014C68.6095 82.7665 68.7833 82.7665 68.8919 82.7014L81.4453 75.4588C81.5539 75.3938 81.6408 75.2637 81.6408 75.1119V60.6483C81.6408 60.4965 81.5756 60.3664 81.4453 60.3014L68.8919 53.0804C68.7833 53.0154 68.6312 53.0154 68.5009 53.0804L55.9475 60.3014C55.8172 60.3664 55.752 60.5182 55.752 60.6483V75.1119C55.752 75.242 55.8389 75.3721 55.9475 75.4371L59.3791 77.4104C61.2469 78.3429 62.398 77.237 62.398 76.1527V61.8627C62.398 61.6675 62.55 61.494 62.7672 61.494H64.3527C64.5481 61.494 64.7219 61.6458 64.7219 61.8627V76.1527C64.7219 78.6464 63.3753 80.0559 61.008 80.0559C60.2912 80.0559 59.7048 80.0559 58.1194 79.2753L54.8181 77.3887C54.0145 76.9117 53.4933 76.0443 53.4933 75.1119V60.6483C53.4933 59.7159 53.9928 58.8268 54.8181 58.3715L67.3716 51.1288C68.1752 50.6735 69.2177 50.6735 69.9995 51.1288L82.553 58.3715C83.3566 58.8485 83.8778 59.7159 83.8778 60.6483V75.1119C83.8778 76.0443 83.3783 76.9334 82.553 77.3887L69.9995 84.6314C69.6303 84.8699 69.1742 85 68.6964 85ZM78.8391 70.7316C78.8391 68.0211 77.0147 67.3055 73.1487 66.785C69.2394 66.2646 68.8484 66.0044 68.8484 65.0937C68.8484 64.3347 69.1742 63.3372 72.0628 63.3372C74.6473 63.3372 75.603 63.901 75.9939 65.6358C76.0373 65.8092 76.1677 65.9177 76.3414 65.9177H77.9703C78.0789 65.9177 78.1658 65.8743 78.2309 65.8092C78.2961 65.7225 78.3395 65.6358 78.3178 65.5273C78.0572 62.5349 76.0808 61.1471 72.0628 61.1471C68.4792 61.1471 66.3508 62.665 66.3508 65.1804C66.3508 67.9343 68.4792 68.6716 71.9108 69.0185C76.0156 69.4305 76.3414 70.016 76.3414 70.8184C76.3414 72.2278 75.212 72.8133 72.5623 72.8133C69.2394 72.8133 68.5009 71.9893 68.262 70.3413C68.2403 70.1678 68.0883 70.0377 67.8928 70.0377H66.2639C66.0684 70.0377 65.8947 70.1895 65.8947 70.4063C65.8947 72.5097 67.0458 75.0251 72.5406 75.0251C76.5586 75.0251 78.8391 73.4639 78.8391 70.7316ZM90.6758 59.8677C90.6758 61.1904 89.5898 62.2747 88.265 62.2747C86.9402 62.2747 85.8542 61.1904 85.8542 59.8677C85.8542 58.5016 86.9836 57.4607 88.265 57.4607C89.5681 57.439 90.6758 58.5016 90.6758 59.8677ZM90.2848 59.8677C90.2848 58.7401 89.3727 57.851 88.2433 57.851C87.1356 57.851 86.2234 58.7401 86.2234 59.8677C86.2234 60.9953 87.1356 61.906 88.2433 61.906C89.3727 61.8843 90.2848 60.9736 90.2848 59.8677ZM89.3075 61.2121H88.7428C88.7211 61.082 88.6342 60.3881 88.6342 60.3664C88.5908 60.2146 88.5473 60.1279 88.3519 60.1279H87.8741V61.2121H87.3528V58.5016H88.2867C88.6125 58.5016 89.2423 58.5016 89.2423 59.2172C89.2423 59.7159 88.9166 59.8243 88.7211 59.8894C89.0903 59.9111 89.112 60.1496 89.1772 60.4965C89.1989 60.7134 89.2423 61.082 89.3075 61.2121ZM88.6994 59.3039C88.6994 58.9353 88.4387 58.9353 88.3084 58.9353H87.8741V59.6942H88.2867C88.6342 59.6942 88.6994 59.4557 88.6994 59.3039ZM29.8198 28.4035C29.8198 27.818 29.5158 27.2976 29.0163 27.0157L15.7027 19.3611C15.4855 19.231 15.2248 19.1659 14.9642 19.1442H14.8339C14.5733 19.1442 14.3344 19.231 14.0955 19.3611L0.803594 27.0157C0.304063 27.2976 0 27.8397 0 28.4035L0.0217187 49.0038C0.0217187 49.2857 0.17375 49.5459 0.412656 49.6977C0.651562 49.8495 0.955625 49.8495 1.21625 49.6977L9.12187 45.1656C9.62141 44.862 9.92547 44.3416 9.92547 43.7778V34.1499C9.92547 33.5861 10.2295 33.044 10.7291 32.7621L14.0955 30.8322C14.3561 30.6804 14.6167 30.6153 14.8991 30.6153C15.1814 30.6153 15.4638 30.6804 15.7027 30.8322L19.0691 32.7621C19.5686 33.044 19.8727 33.5861 19.8727 34.1499V43.7778C19.8727 44.3416 20.1767 44.8837 20.6762 45.1656L28.5819 49.6977C28.8208 49.8495 29.1466 49.8495 29.3855 49.6977C29.6244 49.5676 29.7764 49.2857 29.7764 49.0038L29.8198 28.4035ZM102.621 5.91671V44.1681C102.621 44.7319 102.317 45.274 101.817 45.5559L88.5039 53.2322C88.0044 53.5141 87.3962 53.5141 86.8967 53.2322L73.5831 45.5559C73.0836 45.274 72.7795 44.7319 72.7795 44.1681V28.8155C72.7795 28.2517 73.0836 27.7096 73.5831 27.4277L86.8967 19.7514C87.3962 19.4695 88.0044 19.4695 88.5039 19.7514L91.8269 21.6596C92.1961 21.8765 92.6739 21.5946 92.6739 21.1826V0.799177C92.6739 0.192011 93.3255 -0.19831 93.8684 0.105273L101.796 4.52891C102.295 4.78912 102.621 5.33123 102.621 5.91671ZM92.6305 33.868C92.6305 33.7162 92.5436 33.5861 92.435 33.5211L87.8741 30.8755C87.7437 30.8105 87.5917 30.8105 87.4614 30.8755L82.9005 33.5211C82.7702 33.5861 82.705 33.7162 82.705 33.868V39.1373C82.705 39.2891 82.7919 39.4192 82.9005 39.4843L87.4614 42.1081C87.5917 42.1732 87.7437 42.1732 87.8523 42.1081L92.4133 39.4843C92.5436 39.4192 92.6087 39.2891 92.6087 39.1373V33.868H92.6305ZM138.196 33.7162C138.696 33.4343 139 32.8922 139 32.3284V28.6204C139 28.0566 138.696 27.5145 138.196 27.2326L124.97 19.5562C124.47 19.2743 123.862 19.2743 123.362 19.5562L110.049 27.2326C109.549 27.5145 109.245 28.0566 109.245 28.6204V43.973C109.245 44.5584 109.549 45.0789 110.049 45.3608L123.276 52.8853C123.753 53.1672 124.362 53.1672 124.861 52.8853L132.854 48.44C133.397 48.1364 133.397 47.3557 132.854 47.0522L119.453 39.3759C119.192 39.2241 119.04 38.9639 119.04 38.682V33.868C119.04 33.5861 119.192 33.3259 119.453 33.1741L123.623 30.7671C123.862 30.6153 124.188 30.6153 124.427 30.7671L128.597 33.1741C128.836 33.3259 129.009 33.5861 129.009 33.868V37.6411C129.009 38.2483 129.683 38.6386 130.226 38.335L138.196 33.7162ZM121.408 34.4752C121.321 34.5402 121.256 34.627 121.256 34.7354V37.6845C121.256 37.7929 121.321 37.9013 121.408 37.9447L123.971 39.4192C124.057 39.4843 124.188 39.4843 124.275 39.4192L126.837 37.9447C126.924 37.8796 126.99 37.7929 126.99 37.6845V34.7354C126.99 34.627 126.924 34.5185 126.837 34.4752L124.275 33.0006C124.188 32.9356 124.057 32.9356 123.971 33.0006L121.408 34.4752ZM66.1987 43.9079V28.642C66.1987 28.0782 65.8512 27.5361 65.3517 27.2542L52.0816 19.6213C51.6255 19.3611 50.9956 19.3177 50.4744 19.6213L37.2042 27.2542C36.7047 27.5361 36.3572 28.0566 36.3572 28.642V43.9079C36.3572 44.5151 36.7698 45.0355 37.2259 45.2957L50.5178 52.9287C51.0391 53.2322 51.6472 53.2106 52.125 52.9287L65.3734 45.2957C65.7644 45.0789 66.0467 44.7102 66.1553 44.2766C66.177 44.1681 66.1987 44.038 66.1987 43.9079ZM50.0617 16.824L49.888 16.9324H50.1269L50.0617 16.824ZM66.6114 45.0572L66.5245 44.9054V45.1006L66.6114 45.0572Z" fill="#8CC84C"/>
</svg>
