<svg width="111" height="97" viewBox="0 0 111 97" fill="none" xmlns="http://www.w3.org/2000/svg">
<path d="M90.6645 31.434C89.4938 31.0443 88.323 30.6762 87.1523 30.3298C87.3475 29.5287 87.5209 28.7277 87.6943 27.9266C90.3609 15.0228 88.6049 4.65218 82.6863 1.23138C76.9846 -2.03787 67.684 1.36128 58.275 9.54522C57.3428 10.3463 56.4322 11.1907 55.565 12.035C54.9797 11.4721 54.3727 10.9092 53.7656 10.3679C43.9014 1.62109 34.0154 -2.05952 28.0969 1.38293C22.4168 4.67383 20.7258 14.4383 23.1105 26.6492C23.349 27.8617 23.6092 29.0524 23.9127 30.2649C22.5252 30.6546 21.1594 31.0876 19.8803 31.5423C8.30332 35.5476 0 41.8696 0 48.4081C0 55.1631 8.84531 61.9397 20.8775 66.0534C21.8531 66.3781 22.8287 66.7029 23.826 66.9843C23.5008 68.2834 23.2189 69.5608 22.9588 70.8814C20.6824 82.8975 22.4602 92.4238 28.1402 95.6931C33.9938 99.0706 43.8363 95.6065 53.4187 87.2277C54.1775 86.5565 54.9363 85.8637 55.6951 85.1276C56.649 86.0585 57.6463 86.9462 58.6436 87.8122C67.9225 95.7797 77.093 99.0056 82.7514 95.7364C88.6049 92.3589 90.5127 82.1181 88.0412 69.6474C87.8461 68.6947 87.6293 67.7205 87.3908 66.7245C88.0846 66.5297 88.7566 66.3132 89.4287 66.0967C101.938 61.9614 111 55.2713 111 48.4081C111 41.848 102.458 35.4827 90.6645 31.434ZM61.3318 13.0526C69.3967 6.03782 76.9195 3.28819 80.3449 5.2584C84.0088 7.35851 85.418 15.8456 83.1199 26.9956C82.9682 27.7317 82.8164 28.4462 82.6213 29.1607C77.8084 28.0782 72.9305 27.2987 68.0309 26.8657C65.2125 22.8387 62.134 18.9849 58.7953 15.3692C59.6408 14.5682 60.4646 13.8104 61.3318 13.0526ZM36.2484 59.6448C37.3541 61.5284 38.4814 63.412 39.6738 65.2523C36.2918 64.8842 32.9314 64.343 29.6145 63.6285C30.5684 60.5108 31.7607 57.2849 33.1482 53.994C34.1455 55.8992 35.1645 57.7828 36.2484 59.6448ZM29.6795 33.5991C32.8014 32.9062 36.1184 32.3433 39.5654 31.9103C38.4164 33.7073 37.2891 35.5476 36.2268 37.4096C35.1645 39.2499 34.1238 41.1335 33.1482 43.0387C31.7824 39.8128 30.6334 36.6518 29.6795 33.5991ZM35.6197 48.5164C37.0506 45.5286 38.6115 42.6057 40.2592 39.7262C41.9068 36.8467 43.6846 34.0537 45.549 31.3041C48.801 31.0659 52.118 30.936 55.5 30.936C58.882 30.936 62.2207 31.0659 65.451 31.3041C67.2937 34.0321 69.0498 36.825 70.7191 39.6829C72.3885 42.5408 73.9494 45.4636 75.4236 48.4297C73.9711 51.4175 72.4102 54.362 70.7408 57.2632C69.0932 60.1427 67.3371 62.9357 65.4943 65.7069C62.2641 65.9451 58.9037 66.0534 55.5 66.0534C52.0963 66.0534 48.801 65.9451 45.6141 65.7503C43.7279 63.0006 41.9502 60.186 40.2809 57.3065C38.6115 54.427 37.0723 51.5041 35.6197 48.5164ZM74.7732 59.6015C75.8789 57.6962 76.9195 55.7693 77.9385 53.8208C79.326 56.9601 80.54 60.1427 81.6023 63.412C78.242 64.1698 74.8383 64.7543 71.4129 65.144C72.5836 63.3254 73.6893 61.4634 74.7732 59.6015ZM77.8951 43.0387C76.8762 41.1335 75.8355 39.2282 74.7516 37.3663C73.6893 35.526 72.5836 33.7073 71.4346 31.9103C74.925 32.3433 78.2637 32.9279 81.3855 33.6424C80.3883 36.8467 79.2176 39.9644 77.8951 43.0387ZM55.5434 18.6818C57.8197 21.15 59.966 23.748 61.9605 26.4327C57.668 26.2379 53.3537 26.2379 49.0611 26.4327C51.1857 23.6398 53.3754 21.0417 55.5434 18.6818ZM30.3949 5.40995C34.0371 3.28819 42.1236 6.31928 50.6438 13.8537C51.1857 14.33 51.7277 14.8496 52.2914 15.3692C48.9311 18.9849 45.8309 22.8387 42.9908 26.8657C38.0912 27.2987 33.235 28.0565 28.4221 29.1174C28.1402 28.0132 27.9018 26.8874 27.6633 25.7615C25.6254 15.2826 26.9695 7.38016 30.3949 5.40995ZM25.0834 62.481C24.1729 62.2212 23.284 61.9397 22.3951 61.6366C17.7773 60.186 12.5309 57.8911 8.73691 54.8816C6.54727 53.3661 5.07305 51.0278 4.66113 48.4081C4.66113 44.446 11.5119 39.3798 21.3979 35.9373C22.6336 35.5043 23.891 35.1146 25.1484 34.7466C26.6227 39.4447 28.4004 44.0563 30.46 48.5164C28.3787 53.0413 26.5793 57.7179 25.0834 62.481ZM50.3619 83.6986C46.7848 86.9679 42.6439 89.5659 38.1346 91.3413C35.7281 92.4888 32.9531 92.597 30.4816 91.6228C27.0346 89.6309 25.6037 81.9882 27.5549 71.7042C27.7934 70.4917 28.0535 69.2793 28.357 68.0885C33.2133 69.1277 38.1129 69.8422 43.0775 70.2103C45.9393 74.2589 49.0828 78.1344 52.4432 81.7717C51.7494 82.4429 51.0557 83.0924 50.3619 83.6986ZM55.6734 78.4375C53.4621 76.0559 51.2508 73.4146 49.1045 70.5783C51.1857 70.6649 53.332 70.7082 55.5 70.7082C57.733 70.7082 59.9227 70.6649 62.0906 70.5567C60.0961 73.3063 57.9498 75.926 55.6734 78.4375ZM84.0088 84.9327C83.8137 87.5741 82.5129 90.0423 80.4316 91.7094C76.9846 93.7012 69.6352 91.1031 61.7004 84.3048C60.7898 83.5254 59.8793 82.681 58.9471 81.815C62.2641 78.1561 65.3209 74.2806 68.0959 70.2103C73.0605 69.7989 78.0035 69.0411 82.8814 67.937C83.0982 68.8246 83.2934 69.7123 83.4668 70.5783C84.5291 75.2549 84.7025 80.1263 84.0088 84.9327ZM87.9545 61.6583C87.3475 61.8531 86.7404 62.048 86.1117 62.2212C84.5941 57.5014 82.7297 52.8898 80.5834 48.4081C82.6647 43.9914 84.4207 39.4447 85.8949 34.7899C87.0223 35.1146 88.1063 35.461 89.1469 35.8074C99.2496 39.2715 106.339 44.4244 106.339 48.3648C106.339 52.6083 98.7727 58.0859 87.9545 61.6583ZM55.5 58.4107C60.985 58.4107 65.4293 53.9723 65.4293 48.4947C65.4293 43.0171 60.985 38.5787 55.5 38.5787C50.015 38.5787 45.5707 43.0171 45.5707 48.4947C45.5707 53.9723 50.015 58.4107 55.5 58.4107Z" fill="#60DAFB"/>
</svg>
