<svg width="51" height="51" viewBox="0 0 51 51" fill="none" xmlns="http://www.w3.org/2000/svg">
<path d="M43.3614 7.41094C38.5915 2.62969 32.2393 0 25.4886 0C11.5547 0 0.216295 11.3384 0.216295 25.2723C0.216295 29.7234 1.37746 34.0721 3.58594 37.9085L0 51L13.3989 47.4824C17.0873 49.4973 21.2424 50.556 25.4772 50.556H25.4886C39.4112 50.556 51 39.2176 51 25.2837C51 18.533 48.1312 12.1922 43.3614 7.41094ZM25.4886 46.2984C21.7092 46.2984 18.0094 45.2853 14.7877 43.3728L14.025 42.9174L6.07902 45.0007L8.19643 37.2482L7.69554 36.4513C5.58951 33.1045 4.48527 29.2453 4.48527 25.2723C4.48527 13.6949 13.9112 4.26897 25.5 4.26897C31.1123 4.26897 36.383 6.45469 40.3446 10.4277C44.3062 14.4007 46.7424 19.6714 46.731 25.2837C46.731 36.8725 37.0661 46.2984 25.4886 46.2984ZM37.0092 30.5658C36.383 30.2471 33.2752 28.7217 32.6946 28.5167C32.1141 28.3004 31.6929 28.198 31.2717 28.8355C30.8504 29.473 29.6438 30.8846 29.2681 31.3172C28.9038 31.7384 28.5281 31.7953 27.902 31.4766C24.1908 29.621 21.7547 28.1638 19.3071 23.9632C18.6583 22.8475 19.956 22.9272 21.1627 20.5138C21.3676 20.0926 21.2652 19.7283 21.1058 19.4096C20.9464 19.0908 19.6828 15.983 19.1592 14.7194C18.6469 13.49 18.1232 13.6607 17.7362 13.6379C17.3719 13.6152 16.9507 13.6152 16.5295 13.6152C16.1083 13.6152 15.4252 13.7746 14.8446 14.4007C14.2641 15.0382 12.6362 16.5636 12.6362 19.6714C12.6362 22.7792 14.9016 25.7846 15.2089 26.2058C15.5277 26.627 19.66 33.002 26.0009 35.7455C30.008 37.4759 31.579 37.6239 33.5826 37.3279C34.8007 37.1458 37.3165 35.8025 37.8402 34.3225C38.3638 32.8426 38.3638 31.579 38.2045 31.3172C38.0565 31.0326 37.6353 30.8732 37.0092 30.5658Z" fill="white"/>
</svg>
